<svg width="25" height="25" viewBox="0 0 25 25" fill="none" xmlns="http://www.w3.org/2000/svg">
<path d="M2.67451 24.5151C2.03059 24.5151 1.47935 24.2858 1.0208 23.8273C0.562253 23.3687 0.332977 22.8175 0.332977 22.1736V5.78283C0.332977 5.13891 0.562253 4.58767 1.0208 4.12912C1.47935 3.67057 2.03059 3.4413 2.67451 3.4413H13.1236L10.7821 5.78283H2.67451V22.1736H19.0653V14.0367L21.4068 11.6952V22.1736C21.4068 22.8175 21.1775 23.3687 20.719 23.8273C20.2604 24.2858 19.7092 24.5151 19.0653 24.5151H2.67451ZM15.7578 4.11449L17.4262 5.75356L9.69912 13.4806V15.149H11.3382L19.0945 7.39264L20.7629 9.03171L13.0065 16.788C12.7919 17.0027 12.5431 17.1734 12.2602 17.3003C11.9772 17.4271 11.6797 17.4905 11.3675 17.4905H8.52835C8.19663 17.4905 7.91857 17.3783 7.69418 17.1539C7.46978 16.9295 7.35758 16.6515 7.35758 16.3197V13.4806C7.35758 13.1684 7.41612 12.8709 7.5332 12.5879C7.65027 12.305 7.81613 12.0562 8.03077 11.8416L15.7578 4.11449ZM20.7629 9.03171L15.7578 4.11449L18.6848 1.18757C19.1531 0.719261 19.7141 0.485107 20.3677 0.485107C21.0214 0.485107 21.5726 0.719261 22.0214 1.18757L23.6605 2.85591C24.1093 3.30471 24.3337 3.85106 24.3337 4.49499C24.3337 5.13891 24.1093 5.68527 23.6605 6.13406L20.7629 9.03171Z" fill="white"/>
</svg>
