<svg width="25" height="25" viewBox="0 0 25 25" fill="none" xmlns="http://www.w3.org/2000/svg">
<path d="M19.1282 4.19232L19.1282 20.8077C19.1277 21.2972 18.9331 21.7665 18.5869 22.1126C18.2408 22.4587 17.7715 22.6534 17.2821 22.6539L13.5898 22.6539C13.1003 22.6534 12.631 22.4587 12.2849 22.1126C11.9387 21.7665 11.7441 21.2972 11.7436 20.8077L11.7436 4.19232C11.7441 3.70284 11.9387 3.23354 12.2849 2.88743C12.631 2.54131 13.1003 2.34665 13.5897 2.34616L17.2821 2.34616C17.7715 2.34665 18.2408 2.54131 18.5869 2.88743C18.9331 3.23354 19.1277 3.70284 19.1282 4.19232ZM13.5898 20.8077L17.2821 20.8077L17.2821 4.19232L13.5897 4.19232L13.5898 20.8077ZM13.5897 4.19232L13.5898 20.8077C13.5893 21.2972 13.3946 21.7665 13.0485 22.1126C12.7024 22.4587 12.2331 22.6533 11.7436 22.6538L8.05129 22.6538C7.56181 22.6533 7.09252 22.4587 6.7464 22.1126C6.40029 21.7665 6.20562 21.2972 6.20514 20.8077L6.20513 4.1923C6.20562 3.70282 6.40029 3.23353 6.7464 2.88741C7.09252 2.5413 7.56181 2.34663 8.05129 2.34615L11.7436 2.34615C12.2331 2.34663 12.7024 2.5413 13.0485 2.88741C13.3946 3.23353 13.5893 3.70284 13.5897 4.19232ZM8.05129 20.8077L11.7436 20.8077L11.7436 4.19232L8.05129 4.1923L8.05129 20.8077ZM8.05129 4.1923L8.05129 20.8077C8.0508 21.2972 7.85614 21.7665 7.51002 22.1126C7.16391 22.4587 6.69462 22.6533 6.20514 22.6538L2.51283 22.6538C2.02335 22.6533 1.55405 22.4587 1.20794 22.1126C0.861824 21.7665 0.667162 21.2972 0.666674 20.8077L0.666673 4.1923C0.667162 3.70282 0.861823 3.23353 1.20794 2.88741C1.55405 2.5413 2.02335 2.34663 2.51283 2.34615L6.20513 2.34615C6.69461 2.34663 7.16391 2.5413 7.51002 2.88741C7.85614 3.23353 8.0508 3.70282 8.05129 4.1923ZM2.51283 20.8077L6.20514 20.8077L6.20513 4.1923L2.51283 4.1923L2.51283 20.8077Z" fill="white"/>
<path d="M24.6667 4.19252L24.6667 20.8079C24.6662 21.2974 24.4715 21.7667 24.1254 22.1128C23.7793 22.4589 23.31 22.6536 22.8205 22.6541L19.1282 22.6541C18.6387 22.6536 18.1694 22.4589 17.8233 22.1128C17.4772 21.7667 17.2825 21.2972 17.2821 20.8077L17.2821 4.19232C17.2825 3.70284 17.4772 3.23375 17.8233 2.88763C18.1694 2.54152 18.6387 2.34686 19.1282 2.34637L22.8205 2.34637C23.31 2.34686 23.7793 2.54152 24.1254 2.88763C24.4715 3.23375 24.6662 3.70304 24.6667 4.19252ZM19.1282 20.8077L22.8205 20.8079L22.8205 4.19252L19.1282 4.19232L19.1282 20.8077Z" fill="white"/>
</svg>
